<?xml version="1.0" standalone="no"?>
<!DOCTYPE svg PUBLIC "-//W3C//DTD SVG 20010904//EN"
 "http://www.w3.org/TR/2001/REC-SVG-20010904/DTD/svg10.dtd">
<svg version="1.0" xmlns="http://www.w3.org/2000/svg"
 width="1609.000000pt" height="425.000000pt" viewBox="0 0 1609.000000 425.000000"
 preserveAspectRatio="xMidYMid meet">

<g transform="translate(0.000000,425.000000) scale(0.100000,-0.100000)"
fill="#000000" stroke="none">
<path d="M9660 4211 c0 -16 -11 -20 -85 -26 -75 -6 -85 -9 -85 -26 0 -16 -7
-19 -50 -19 -43 0 -50 -3 -50 -19 0 -15 -10 -21 -40 -26 -39 -7 -40 -8 -40
-46 0 -32 -3 -39 -20 -39 -13 0 -20 7 -20 20 0 17 -7 20 -45 20 -38 0 -45 -3
-45 -19 0 -13 -8 -21 -22 -23 -15 -2 -24 -11 -26 -25 -2 -15 -10 -23 -23 -23
-10 0 -19 -6 -19 -14 0 -8 -10 -16 -22 -18 -15 -2 -24 -11 -26 -25 -2 -15 -10
-23 -23 -23 -14 0 -19 -7 -19 -25 0 -18 -5 -25 -20 -25 -13 0 -20 -7 -20 -20
0 -15 -7 -20 -25 -20 -20 0 -25 -5 -25 -25 0 -18 -5 -25 -20 -25 -13 0 -20 -7
-20 -20 0 -13 -7 -20 -20 -20 -13 0 -20 -7 -20 -20 0 -15 -7 -20 -25 -20 -20
0 -25 -5 -25 -25 0 -20 -5 -25 -25 -25 -18 0 -25 -5 -25 -20 0 -11 -6 -20 -14
-20 -10 0 -17 -16 -22 -45 -5 -35 -10 -45 -25 -45 -14 0 -19 -7 -19 -25 0 -18
-5 -25 -20 -25 -21 0 -23 -8 -24 -85 -1 -34 -5 -41 -23 -43 -22 -3 -23 -8 -23
-88 0 -76 -2 -84 -19 -84 -13 0 -21 -8 -23 -22 -2 -15 -11 -24 -26 -26 -23 -3
-24 -7 -21 -65 1 -34 2 -92 1 -129 -2 -61 -4 -68 -22 -68 -19 0 -20 -7 -20
-175 l0 -175 -25 0 c-18 0 -25 -5 -25 -19 0 -20 -34 -31 -96 -31 -34 0 -34 -1
-34 -45 0 -38 -3 -45 -20 -45 -15 0 -20 7 -20 25 0 18 -5 25 -20 25 -17 0 -20
-7 -20 -45 0 -41 -2 -45 -25 -45 -18 0 -25 5 -25 20 0 13 -7 20 -20 20 -13 0
-20 -7 -20 -20 0 -17 -7 -20 -45 -20 -38 0 -45 -3 -45 -19 0 -16 -8 -20 -42
-23 -35 -2 -44 -7 -46 -24 -3 -18 -10 -20 -67 -21 l-65 0 0 62 0 63 -45 6
c-36 6 -45 11 -45 27 0 14 -7 19 -25 19 -18 0 -25 5 -25 20 0 17 -7 20 -47 20
-73 0 -123 11 -123 26 0 8 9 14 20 14 15 0 20 7 20 25 0 18 -5 25 -20 25 -13
0 -20 7 -20 19 0 15 -10 20 -45 25 -45 7 -45 8 -45 47 l0 39 -65 0 c-63 0 -65
1 -65 25 0 18 -5 25 -20 25 -13 0 -20 7 -20 20 0 15 -7 20 -25 20 -20 0 -25 5
-25 25 0 23 -4 25 -45 25 -38 0 -45 3 -45 20 0 13 -7 20 -20 20 -13 0 -20 7
-20 20 0 17 -7 20 -45 20 -41 0 -45 2 -45 25 0 23 -4 25 -45 25 -38 0 -45 3
-45 20 0 17 -7 20 -39 20 -33 0 -40 4 -43 23 -2 14 -11 23 -25 25 -15 2 -23
10 -23 23 0 12 -7 19 -20 19 -13 0 -20 7 -20 20 0 17 -7 20 -45 20 -41 0 -45
2 -45 25 0 23 -4 25 -45 25 -38 0 -45 3 -45 20 0 17 -7 20 -45 20 -41 0 -45 2
-45 25 0 23 -4 25 -40 25 -33 0 -40 3 -40 20 0 17 -7 20 -45 20 -38 0 -45 3
-45 20 0 17 -7 20 -45 20 -41 0 -45 2 -45 25 0 23 -4 25 -45 25 -38 0 -45 3
-45 20 0 17 -7 20 -45 20 -37 0 -45 3 -45 19 0 20 -34 31 -96 31 -27 0 -34 4
-34 20 0 18 -7 20 -65 20 -58 0 -65 2 -65 20 0 17 -7 20 -45 20 -41 0 -45 2
-45 25 l0 25 -130 0 c-123 0 -130 1 -130 20 0 17 -7 20 -45 20 -38 0 -45 3
-45 20 0 13 -7 20 -20 20 -13 0 -20 -7 -20 -20 0 -15 -7 -20 -25 -20 -20 0
-25 5 -25 25 0 25 -1 25 -85 25 -78 0 -85 2 -85 20 0 19 -7 20 -115 20 -108 0
-115 1 -115 20 0 18 -7 20 -72 20 -108 0 -148 9 -148 31 0 12 -7 19 -20 19
-13 0 -20 -7 -20 -20 0 -17 -7 -20 -39 -20 -30 0 -40 4 -44 20 -5 19 -14 20
-141 20 -129 0 -136 1 -136 20 0 11 -7 20 -15 20 -8 0 -15 -9 -15 -20 0 -15
-7 -20 -25 -20 -18 0 -25 5 -25 20 0 17 -7 20 -45 20 -38 0 -45 3 -45 20 0 13
-7 20 -20 20 -13 0 -20 -7 -20 -20 0 -17 -7 -20 -45 -20 -38 0 -45 3 -45 20 0
13 -7 20 -20 20 -14 0 -20 -7 -20 -21 0 -19 -4 -21 -38 -15 -20 3 -43 6 -49 6
-7 0 -13 7 -13 15 0 22 -27 18 -33 -5 -3 -12 -14 -20 -26 -20 -14 0 -21 6 -21
20 0 17 -7 20 -45 20 -33 0 -45 -4 -45 -15 0 -8 -9 -15 -20 -15 -13 0 -20 7
-20 20 0 21 -9 24 -59 14 -21 -5 -31 -12 -31 -25 0 -12 -7 -19 -20 -19 -13 0
-20 7 -20 19 0 27 -13 33 -55 25 -26 -5 -35 -11 -35 -26 0 -28 -44 -20 -48 9
-3 22 -5 22 -175 22 -527 -2 -567 -1 -567 21 0 15 -7 20 -25 20 -18 0 -25 -5
-25 -20 0 -19 -7 -20 -90 -20 -83 0 -90 1 -90 20 0 17 -7 20 -40 20 -33 0 -40
-3 -40 -20 0 -18 -7 -20 -70 -20 -63 0 -70 2 -70 20 0 17 -7 20 -40 20 -33 0
-40 -3 -40 -20 0 -15 -7 -20 -25 -20 -18 0 -25 -5 -25 -20 0 -13 -7 -20 -20
-20 -13 0 -20 7 -20 20 0 17 -7 20 -45 20 -42 0 -45 -2 -45 -26 0 -23 -3 -25
-42 -22 -36 2 -44 7 -46 26 -3 18 -10 22 -42 22 -32 0 -39 -4 -42 -22 -3 -21
-8 -23 -63 -23 -33 0 -113 -1 -177 -3 -111 -2 -118 -3 -118 -22 0 -18 -7 -20
-84 -20 -80 0 -85 -1 -88 -22 -3 -22 -8 -23 -109 -26 -97 -2 -107 -5 -112 -22
-5 -18 -14 -20 -91 -20 -77 0 -86 -2 -86 -19 0 -19 -39 -31 -102 -31 -21 0
-28 -5 -28 -20 0 -17 -7 -20 -45 -20 -38 0 -45 -3 -45 -20 0 -18 -7 -20 -65
-20 -63 0 -65 -1 -65 -25 0 -18 -5 -25 -20 -25 -17 0 -20 -7 -22 -47 -1 -27
-1 -65 0 -85 2 -34 0 -38 -23 -38 -23 0 -25 -4 -25 -45 0 -38 3 -45 20 -45 18
0 20 -7 20 -65 0 -63 1 -65 25 -65 18 0 25 -5 25 -20 0 -13 7 -20 20 -20 15 0
20 -7 20 -25 0 -18 5 -25 19 -25 15 0 20 -10 25 -45 6 -36 11 -45 27 -45 12 0
19 -7 19 -19 0 -14 10 -20 40 -25 37 -6 40 -9 46 -46 5 -30 11 -40 25 -40 11
0 19 -9 21 -22 2 -15 11 -24 26 -26 14 -2 22 -10 22 -23 0 -12 7 -19 20 -19
13 0 20 -7 20 -19 0 -13 8 -21 23 -23 14 -2 23 -11 25 -25 3 -19 10 -23 43
-23 32 0 39 -3 39 -20 0 -13 7 -20 19 -20 16 0 20 -8 23 -42 2 -36 7 -44 25
-46 15 -2 23 -10 23 -23 0 -12 7 -19 20 -19 15 0 20 -7 20 -25 0 -20 5 -25 25
-25 18 0 25 -5 25 -20 0 -13 7 -20 19 -20 23 0 28 -27 23 -137 -4 -73 -6 -83
-23 -83 -14 0 -19 -7 -19 -25 0 -18 -5 -25 -20 -25 -13 0 -20 -7 -20 -20 0
-17 -7 -20 -45 -20 -38 0 -45 -3 -45 -19 0 -13 -8 -21 -23 -23 -14 -2 -23 -11
-25 -25 -2 -15 -10 -23 -23 -23 -12 0 -19 -7 -19 -20 0 -18 -7 -20 -64 -20
-59 0 -65 -2 -68 -22 -2 -19 -10 -24 -46 -26 -42 -3 -42 -3 -42 -43 l0 -39
-45 0 c-41 0 -45 -2 -45 -25 0 -18 -5 -25 -20 -25 -13 0 -20 -7 -20 -20 0 -15
-7 -20 -25 -20 -20 0 -25 -5 -25 -25 0 -18 -5 -25 -20 -25 -13 0 -20 -7 -20
-20 0 -15 -7 -20 -25 -20 -18 0 -25 -5 -25 -20 0 -13 -7 -20 -20 -20 -18 0
-20 -7 -20 -70 0 -63 -2 -70 -20 -70 -13 0 -20 -7 -20 -20 0 -13 7 -20 20 -20
17 0 20 -7 20 -45 0 -38 3 -45 20 -45 14 0 20 -7 20 -21 0 -12 8 -23 20 -26
14 -4 22 -17 26 -44 5 -29 11 -39 25 -39 11 0 19 -9 21 -22 2 -15 11 -24 26
-26 14 -2 22 -10 22 -23 0 -16 7 -19 40 -19 33 0 40 -4 40 -19 0 -15 10 -20
45 -25 36 -6 45 -11 45 -27 0 -14 7 -19 25 -19 18 0 25 -5 25 -20 0 -17 7 -20
41 -20 32 0 42 -4 46 -19 3 -13 17 -22 44 -26 29 -5 39 -11 39 -26 0 -16 7
-19 45 -19 38 0 45 -3 45 -20 0 -15 7 -20 25 -20 18 0 25 5 25 20 0 11 7 20
15 20 8 0 15 -9 15 -20 0 -15 7 -20 25 -20 20 0 25 -5 25 -25 0 -23 4 -25 45
-25 38 0 45 -3 45 -20 0 -17 7 -20 45 -20 42 0 45 -2 45 -26 0 -24 2 -26 33
-20 50 9 97 -3 97 -25 0 -17 9 -19 90 -19 89 0 90 0 90 -25 0 -22 4 -25 39
-25 30 0 40 -4 44 -20 5 -18 14 -20 91 -20 79 0 86 -2 86 -20 0 -18 7 -20 54
-20 78 0 113 -9 119 -31 5 -17 15 -19 91 -19 79 0 86 -2 86 -20 0 -19 7 -20
130 -20 120 0 130 -1 130 -19 0 -23 40 -31 173 -31 90 0 97 -1 97 -20 0 -19 7
-20 240 -20 233 0 240 -1 240 -20 0 -20 7 -20 555 -20 548 0 555 0 555 20 0
13 7 20 20 20 13 0 20 -7 20 -20 0 -17 7 -20 45 -20 38 0 45 3 45 20 0 19 7
20 200 20 193 0 200 1 200 20 0 13 7 20 20 20 13 0 20 -7 20 -20 0 -13 7 -20
20 -20 13 0 20 7 20 20 0 15 7 20 25 20 18 0 25 -5 25 -20 0 -16 7 -20 34 -20
53 0 96 11 96 26 0 8 18 15 45 20 35 5 45 10 45 25 0 12 7 19 20 19 13 0 20
-7 20 -20 0 -15 7 -20 25 -20 18 0 25 5 25 20 0 18 7 20 85 20 78 0 85 2 85
20 0 19 7 20 90 20 89 0 90 0 90 25 0 23 4 25 45 25 38 0 45 -3 45 -20 0 -13
7 -20 20 -20 13 0 20 7 20 20 0 18 7 20 65 20 58 0 65 2 65 20 0 19 7 20 90
20 89 0 90 0 90 25 0 23 4 25 45 25 38 0 45 3 45 20 0 18 7 20 85 20 76 0 85
2 85 19 0 20 34 31 95 31 24 0 34 5 38 20 3 12 14 20 26 20 14 0 21 6 21 20 0
13 7 20 20 20 13 0 20 -7 20 -20 0 -13 7 -20 20 -20 13 0 20 7 20 20 0 17 7
20 39 20 67 0 101 11 101 31 0 12 7 19 20 19 13 0 20 7 20 20 0 18 7 20 64 20
59 0 65 2 68 23 2 18 10 23 46 25 34 3 42 7 42 23 0 16 7 19 45 19 38 0 45 3
45 20 0 13 7 20 19 20 13 0 21 8 23 23 3 19 10 22 51 25 l49 3 -7 38 c-6 38
-6 38 32 44 21 4 62 7 91 7 l52 0 0 40 c0 34 3 40 21 40 12 0 23 8 26 20 7 26
29 26 36 0 8 -31 47 -27 47 5 0 18 5 25 20 25 13 0 20 7 20 20 0 13 -7 20 -20
20 -13 0 -20 7 -20 20 0 17 7 20 45 20 41 0 45 2 45 25 0 20 5 25 26 25 21 0
25 4 22 23 -2 14 -11 23 -25 25 -28 4 -31 32 -3 32 17 0 20 7 20 39 0 21 3 53
6 70 6 28 4 31 -20 31 -21 0 -26 5 -26 25 0 22 -4 25 -34 25 -62 0 -96 -11
-96 -31 0 -16 -8 -19 -45 -19 -38 0 -45 -3 -45 -19 0 -16 -8 -20 -42 -23 -36
-2 -44 -7 -46 -26 -3 -16 -10 -22 -28 -22 -17 0 -24 -5 -24 -20 0 -17 -7 -20
-40 -20 -33 0 -40 -3 -40 -19 0 -13 -8 -21 -22 -23 -15 -2 -24 -11 -26 -26 -3
-19 -9 -22 -48 -22 -37 0 -44 -3 -44 -20 0 -17 -7 -20 -39 -20 -33 0 -40 -4
-43 -22 -2 -19 -10 -24 -45 -26 -35 -3 -43 -7 -43 -23 0 -17 -7 -19 -65 -19
-58 0 -65 -2 -65 -19 0 -13 -8 -21 -22 -23 -15 -2 -24 -11 -26 -25 -3 -20 -9
-23 -48 -23 -37 0 -44 -3 -44 -20 0 -11 -7 -20 -15 -20 -8 0 -15 9 -15 20 0
15 -7 20 -25 20 -18 0 -25 -5 -25 -19 0 -15 -10 -20 -45 -25 -36 -6 -45 -11
-45 -27 0 -16 -7 -19 -45 -19 -38 0 -45 -3 -45 -20 0 -21 -19 -26 -92 -21 -33
2 -38 -1 -38 -18 0 -16 -6 -21 -25 -21 -16 0 -25 6 -25 15 0 8 -7 15 -15 15
-8 0 -15 -6 -15 -14 0 -9 -12 -16 -27 -18 -20 -2 -29 -9 -31 -25 -3 -21 -9
-23 -68 -23 -57 0 -64 -2 -64 -20 0 -15 -7 -20 -27 -20 -64 0 -103 -12 -103
-31 0 -17 -9 -19 -90 -19 -83 0 -90 -1 -90 -20 0 -17 -7 -20 -40 -20 -33 0
-40 3 -40 20 0 13 -7 20 -20 20 -13 0 -20 -7 -20 -20 0 -18 -7 -20 -70 -20
-63 0 -70 -2 -70 -20 0 -18 -7 -20 -54 -20 -81 0 -116 -9 -116 -31 0 -14 -7
-19 -25 -19 -18 0 -25 5 -25 19 0 14 -10 21 -35 25 -42 8 -55 2 -55 -25 0 -12
-7 -19 -20 -19 -13 0 -20 7 -20 20 0 13 -7 20 -20 20 -13 0 -20 -7 -20 -20 0
-17 -7 -20 -45 -20 -38 0 -45 -3 -45 -20 0 -13 -7 -20 -20 -20 -13 0 -20 7
-20 20 0 15 -7 20 -25 20 -18 0 -25 -5 -25 -20 0 -15 -7 -20 -25 -20 -18 0
-25 5 -25 20 0 11 -7 20 -15 20 -8 0 -15 -8 -15 -19 0 -22 -58 -35 -109 -25
-28 6 -31 4 -31 -20 0 -24 -4 -26 -39 -26 -33 0 -40 4 -43 23 -2 18 -10 23
-48 25 -25 2 -64 1 -87 -3 -34 -5 -43 -10 -43 -26 0 -14 -7 -19 -25 -19 -18 0
-25 5 -25 20 0 13 -7 20 -20 20 -13 0 -20 -7 -20 -20 0 -15 -7 -20 -25 -20
-18 0 -25 5 -25 20 0 26 -26 26 -33 0 -5 -19 -14 -20 -181 -20 -169 0 -176 1
-176 20 0 15 -7 20 -25 20 -18 0 -25 -5 -25 -20 0 -13 -7 -20 -20 -20 -15 0
-20 7 -20 25 l0 25 -175 0 c-168 0 -175 1 -175 20 0 18 -7 20 -65 20 -58 0
-65 -2 -65 -20 0 -15 -7 -20 -25 -20 -20 0 -25 -5 -25 -26 0 -21 -4 -25 -22
-22 -20 3 -23 8 -20 46 3 39 2 42 -22 42 -19 0 -26 -5 -26 -20 0 -13 -7 -20
-20 -20 -13 0 -20 7 -20 20 0 18 -7 20 -70 20 -63 0 -70 -2 -70 -20 0 -11 -7
-20 -15 -20 -8 0 -15 9 -15 20 0 18 -7 20 -70 20 -63 0 -70 -2 -70 -20 0 -13
-7 -20 -20 -20 -13 0 -20 7 -20 20 0 18 -7 20 -65 20 -57 0 -65 2 -65 19 0 22
-40 31 -152 31 -60 0 -78 3 -78 14 0 16 -30 26 -82 26 -31 0 -38 4 -38 20 0
19 -7 20 -109 20 -106 0 -110 1 -113 22 -3 21 -9 23 -70 26 -60 3 -68 5 -68
22 0 19 -8 20 -110 20 l-110 0 0 25 c0 25 -1 25 -85 25 -78 0 -85 2 -85 20 0
17 -7 20 -45 20 -38 0 -45 3 -45 20 0 17 -7 20 -45 20 -41 0 -45 2 -45 25 0
23 -4 25 -45 25 -38 0 -45 3 -45 20 0 17 -7 20 -45 20 -38 0 -45 3 -45 19 0
16 -9 21 -45 27 -35 5 -45 10 -45 25 0 17 -8 19 -65 19 -58 0 -65 2 -65 20 0
17 -7 20 -40 20 -36 0 -40 3 -40 25 0 20 -5 25 -25 25 -22 0 -25 4 -25 39 0
33 4 40 22 43 19 2 24 10 26 46 3 34 7 42 23 42 12 0 19 7 19 19 0 16 8 20 43
23 42 3 42 3 45 46 3 46 9 49 94 43 32 -2 38 1 38 18 0 16 9 21 45 27 35 5 45
10 45 25 0 13 7 19 21 19 12 0 23 8 26 20 4 16 15 20 67 22 55 3 61 5 64 26 3
20 9 22 68 22 57 0 64 2 64 20 0 18 7 20 65 20 63 0 65 1 65 25 0 23 4 25 45
25 38 0 45 3 45 20 0 18 7 20 65 20 l65 0 0 70 c0 68 -1 70 -25 70 -18 0 -25
5 -25 20 0 13 -7 20 -20 20 -15 0 -20 7 -20 25 0 18 -5 25 -20 25 -13 0 -20 7
-20 20 0 15 -7 20 -25 20 -22 0 -25 4 -25 39 0 38 -1 39 -40 46 -30 5 -40 11
-40 26 0 14 -7 19 -25 19 -20 0 -25 5 -25 25 0 18 -5 25 -20 25 -13 0 -20 7
-20 20 0 13 -7 20 -20 20 -13 0 -20 7 -20 20 0 15 -7 20 -25 20 -20 0 -25 5
-25 25 0 20 -5 25 -25 25 -18 0 -25 5 -25 20 0 17 -7 20 -40 20 l-40 0 0 45
c0 41 -2 45 -25 45 -18 0 -25 5 -25 20 0 13 -7 20 -20 20 -15 0 -20 7 -20 25
0 20 -5 25 -25 25 -18 0 -25 5 -25 20 0 13 -7 20 -20 20 -15 0 -20 7 -20 25 0
18 -5 25 -20 25 -13 0 -20 7 -20 20 0 15 -7 20 -25 20 -18 0 -25 5 -25 20 0
13 -7 20 -20 20 -15 0 -20 7 -20 25 0 20 -5 25 -25 25 -24 0 -25 2 -25 65 0
58 -2 65 -20 65 -18 0 -20 7 -20 65 0 58 2 65 20 65 13 0 20 7 20 20 0 17 8
19 68 22 61 3 67 5 70 26 3 21 8 22 88 22 77 0 84 2 84 20 0 19 7 20 135 20
128 0 135 1 135 20 0 22 24 24 220 25 80 0 85 1 88 23 3 18 10 22 43 22 32 0
39 -3 39 -20 0 -17 7 -20 45 -20 38 0 45 3 45 20 0 20 7 20 990 20 983 0 990
0 990 -20 0 -13 7 -20 20 -20 13 0 20 7 20 20 0 17 7 20 45 20 38 0 45 -3 45
-20 0 -19 7 -20 124 -20 151 0 186 -6 186 -31 0 -17 9 -19 110 -19 103 0 110
-1 110 -20 0 -15 7 -20 25 -20 18 0 25 5 25 20 0 13 7 20 20 20 13 0 20 -7 20
-20 0 -18 7 -20 65 -20 58 0 65 -2 65 -20 0 -17 7 -20 48 -20 27 0 97 -3 155
-7 95 -5 107 -8 107 -25 0 -14 8 -18 40 -18 33 0 40 -3 40 -20 0 -17 7 -20 50
-20 43 0 50 3 50 20 0 13 7 20 20 20 13 0 20 -7 20 -20 0 -16 7 -20 34 -20 62
0 96 -11 96 -31 0 -17 8 -19 65 -19 58 0 65 -2 65 -20 0 -17 8 -19 68 -22 62
-3 67 -5 70 -27 3 -20 8 -22 32 -18 47 10 100 -3 100 -24 0 -12 7 -19 20 -19
13 0 20 -7 20 -19 0 -19 39 -31 101 -31 18 0 28 -6 32 -20 4 -16 14 -20 46
-20 34 0 41 -3 41 -20 0 -17 7 -20 45 -20 41 0 45 -2 45 -25 0 -23 4 -25 45
-25 38 0 45 -3 45 -20 0 -17 7 -20 45 -20 38 0 45 -3 45 -20 0 -13 7 -20 20
-20 15 0 20 -7 20 -25 0 -23 4 -25 45 -25 38 0 45 -3 45 -20 0 -18 7 -20 65
-20 63 0 65 -1 65 -25 0 -18 5 -25 20 -25 13 0 20 -7 20 -20 0 -17 7 -20 44
-20 39 0 45 -3 48 -22 2 -19 10 -24 46 -26 34 -3 42 -7 42 -23 0 -16 7 -19 45
-19 38 0 45 -3 45 -20 0 -13 7 -20 20 -20 15 0 20 -7 20 -25 0 -23 4 -25 45
-25 37 0 45 -3 45 -19 0 -14 10 -20 40 -25 37 -6 40 -9 46 -46 5 -30 11 -40
25 -40 11 0 19 -9 21 -22 2 -19 10 -24 46 -26 34 -3 42 -7 42 -23 0 -12 7 -19
20 -19 13 0 20 -7 20 -20 0 -15 7 -20 25 -20 20 0 25 -5 25 -25 0 -23 4 -25
45 -25 38 0 45 -3 45 -20 0 -13 7 -20 20 -20 13 0 20 -7 20 -19 0 -15 10 -20
45 -25 45 -7 45 -8 45 -47 0 -32 3 -39 20 -39 14 0 20 -7 20 -21 0 -12 8 -23
20 -26 11 -3 20 -14 20 -24 0 -16 8 -19 44 -19 l44 0 7 -46 c6 -45 7 -46 37
-40 17 3 34 6 39 6 5 0 9 9 9 20 0 18 7 20 65 20 58 0 65 2 65 20 0 15 7 20
25 20 18 0 25 5 25 19 0 15 10 20 45 25 36 6 45 11 45 27 0 16 7 19 45 19 38
0 45 3 45 20 0 16 7 20 38 20 54 0 80 9 85 31 3 11 14 19 26 19 14 0 21 6 21
20 0 17 7 20 45 20 38 0 45 3 45 20 0 15 7 20 28 20 63 0 102 12 102 31 0 14
7 19 25 19 18 0 25 5 25 20 0 17 7 20 39 20 33 0 40 4 43 23 2 18 10 23 46 25
34 3 42 7 42 23 0 16 7 19 45 19 38 0 45 3 45 19 0 13 8 21 23 23 14 2 23 11
25 26 3 20 -1 22 -42 22 l-46 0 -2 48 c-1 26 -2 65 -3 87 -2 87 -1 85 -45 85
l-40 0 0 110 c0 103 1 110 20 110 15 0 20 7 20 25 0 18 -5 25 -20 25 -11 0
-20 7 -20 15 0 8 9 15 20 15 14 0 20 7 20 23 0 40 11 65 31 70 11 3 19 14 19
26 0 14 6 21 20 21 18 0 20 7 20 64 l0 63 40 7 c37 6 40 9 46 46 5 30 11 40
25 40 13 0 19 7 19 21 0 12 8 23 19 26 11 3 21 13 24 24 3 11 14 19 26 19 14
0 21 6 21 20 0 13 7 20 20 20 15 0 20 7 20 25 0 18 5 25 20 25 13 0 20 7 20
20 0 15 7 20 25 20 20 0 25 5 25 25 0 20 5 25 25 25 18 0 25 5 25 20 0 13 7
20 20 20 13 0 20 7 20 20 0 16 7 20 34 20 62 0 96 11 96 31 0 16 8 19 45 19
38 0 45 3 45 20 0 18 7 20 65 20 57 0 65 2 65 19 0 24 40 31 193 31 l117 0 0
-25 c0 -23 4 -25 45 -25 37 0 45 -3 45 -19 0 -14 10 -20 40 -25 37 -6 40 -9
46 -46 5 -30 11 -40 25 -40 14 0 19 -7 19 -25 0 -18 5 -25 19 -25 15 0 21 -10
26 -40 5 -30 11 -40 26 -40 16 0 19 -7 19 -45 0 -38 3 -45 20 -45 18 0 20 -7
20 -65 0 -57 2 -65 19 -65 15 0 20 -10 26 -50 6 -40 11 -50 26 -50 27 0 24
-28 -3 -32 -22 -3 -23 -7 -26 -135 l-3 -133 25 0 c34 0 37 -37 4 -42 -22 -3
-23 -7 -23 -93 0 -86 1 -90 23 -93 18 -3 22 -10 22 -43 l0 -39 65 0 c58 0 65
2 65 20 0 15 7 20 25 20 20 0 25 5 25 25 l0 25 110 0 c103 0 110 1 110 20 0
20 7 20 285 20 278 0 285 0 285 -20 0 -15 7 -20 25 -20 18 0 25 -5 25 -20 0
-15 7 -20 29 -20 57 0 91 -12 91 -31 0 -14 7 -19 25 -19 18 0 25 -5 25 -20 0
-13 7 -20 19 -20 15 0 20 -10 25 -45 5 -27 12 -45 20 -45 15 0 26 -43 26 -96
0 -27 4 -34 20 -34 19 0 20 -7 20 -90 l0 -90 -40 0 c-33 0 -40 -3 -40 -20 0
-15 -7 -20 -25 -20 -23 0 -25 -4 -25 -45 0 -41 -2 -45 -25 -45 -18 0 -25 -5
-25 -20 0 -18 -7 -20 -65 -20 -63 0 -65 -1 -65 -25 0 -23 -4 -25 -45 -25 -38
0 -45 -3 -45 -20 0 -18 -7 -20 -85 -20 l-85 0 0 -45 c0 -38 3 -45 20 -45 17 0
20 -7 20 -45 0 -41 2 -45 25 -45 23 0 25 -4 25 -45 0 -38 3 -45 20 -45 18 0
20 -7 20 -65 0 -58 2 -65 20 -65 19 0 20 -7 20 -90 0 -89 0 -90 25 -90 18 0
25 -5 25 -20 0 -15 -7 -20 -26 -20 -21 0 -25 -4 -22 -22 2 -15 11 -24 26 -26
14 -2 22 -10 22 -23 0 -16 -7 -19 -45 -19 -38 0 -45 -3 -45 -20 0 -13 -7 -20
-19 -20 -13 0 -21 -8 -23 -22 -2 -15 -11 -24 -25 -26 -15 -2 -23 -10 -23 -23
0 -12 -7 -19 -20 -19 -13 0 -20 -7 -20 -20 0 -18 -7 -20 -64 -20 l-64 0 -6
-45 c-7 -45 -7 -45 -48 -45 -30 0 -41 -4 -45 -19 -4 -15 -18 -19 -92 -24 -48
-3 -115 -3 -149 0 -52 5 -62 9 -62 24 0 12 -7 19 -20 19 -13 0 -20 -7 -20 -20
0 -17 -7 -20 -45 -20 -38 0 -45 3 -45 20 0 27 -40 27 -47 0 -8 -29 -78 -29
-86 0 -5 18 -14 20 -111 20 -99 0 -106 1 -106 20 0 18 -7 20 -65 20 -58 0 -65
2 -65 20 0 13 7 20 20 20 15 0 20 7 20 25 0 18 -5 25 -19 25 -13 0 -21 8 -23
22 -2 15 -11 24 -25 26 -19 3 -23 10 -23 43 0 35 3 39 25 39 20 0 25 5 25 25
0 20 -5 25 -25 25 -24 0 -25 3 -25 59 l0 58 -70 7 c-60 6 -70 10 -70 27 0 17
-7 19 -60 19 -53 0 -60 -2 -60 -20 0 -19 -7 -20 -90 -20 l-90 0 0 -45 c0 -41
-2 -45 -25 -45 -18 0 -25 -5 -25 -20 0 -13 -7 -20 -20 -20 -17 0 -20 -7 -20
-45 0 -38 -3 -45 -20 -45 -19 0 -20 -7 -20 -135 l0 -135 39 0 c38 0 39 -1 46
-40 5 -30 11 -40 26 -40 14 0 19 -7 19 -25 0 -18 -5 -25 -20 -25 -13 0 -20 -7
-20 -20 0 -19 -7 -20 -90 -20 -89 0 -90 0 -90 -25 l0 -25 -175 0 -175 0 0 25
c0 23 -4 25 -45 25 -38 0 -45 3 -45 20 0 17 -7 20 -45 20 -38 0 -45 3 -45 20
0 13 -7 20 -20 20 -15 0 -20 7 -20 25 0 20 -5 25 -25 25 -20 0 -25 5 -25 25 0
18 -5 25 -20 25 -17 0 -20 7 -20 40 0 33 -3 40 -20 40 -15 0 -20 7 -20 25 0
18 5 25 20 25 13 0 20 7 20 20 0 19 -7 20 -90 20 -83 0 -90 -1 -90 -20 0 -13
-7 -20 -20 -20 -13 0 -20 7 -20 20 0 29 -38 27 -42 -2 -2 -19 -10 -24 -45 -26
-43 -3 -43 -3 -43 -42 0 -32 -4 -39 -22 -42 -15 -2 -23 -10 -23 -23 0 -13 8
-21 23 -23 18 -3 22 -10 22 -43 0 -32 3 -39 20 -39 18 0 20 -7 20 -64 0 -59 2
-65 23 -68 18 -2 23 -10 25 -45 3 -40 5 -42 43 -48 29 -5 39 -11 39 -26 0 -14
7 -19 25 -19 18 0 25 -5 25 -20 0 -13 7 -20 19 -20 13 0 21 -8 23 -22 2 -15
11 -24 26 -26 14 -2 22 -10 22 -23 0 -16 7 -19 40 -19 33 0 40 -3 40 -19 0
-16 9 -21 45 -27 35 -5 45 -10 45 -25 0 -17 8 -19 65 -19 58 0 65 -2 65 -20 0
-19 7 -20 160 -20 153 0 160 1 160 20 0 18 7 20 85 20 78 0 85 2 85 20 0 18 7
20 88 22 48 1 106 1 130 0 39 -2 42 0 42 23 0 20 5 25 25 25 18 0 25 5 25 20
0 13 7 20 20 20 15 0 20 7 20 25 0 18 5 25 20 25 13 0 20 7 20 20 0 15 7 20
25 20 18 0 25 5 25 20 0 13 7 20 19 20 13 0 21 8 23 22 2 15 11 24 26 26 14 2
22 10 22 23 0 17 7 19 65 19 58 0 65 -2 65 -20 0 -17 7 -20 45 -20 37 0 45 -3
45 -19 0 -25 35 -31 186 -31 117 0 124 -1 124 -20 0 -20 7 -20 330 -20 320 0
330 1 330 19 0 16 8 20 43 23 35 2 43 7 45 26 3 18 10 22 43 22 32 0 39 3 39
20 0 17 7 20 45 20 38 0 45 3 45 19 0 13 8 21 23 23 14 2 23 11 25 26 2 14 10
22 23 22 12 0 19 7 19 20 0 13 7 20 19 20 13 0 21 8 23 23 2 14 11 23 26 25
14 2 22 10 22 23 0 12 7 19 20 19 17 0 20 7 20 45 0 41 2 45 24 45 l23 0 2
200 1 200 -25 0 -25 0 0 110 0 110 25 0 c18 0 25 5 25 20 0 16 7 20 38 20 52
0 82 10 82 26 0 8 10 14 25 14 20 0 25 5 25 25 0 20 5 25 25 25 18 0 25 5 25
20 0 17 7 20 40 20 l40 0 0 45 c0 38 3 45 20 45 15 0 20 7 20 25 0 16 -6 25
-15 25 -8 0 -15 9 -15 20 0 17 7 20 40 20 l40 0 0 245 c0 232 -1 245 -19 245
-15 0 -19 11 -25 61 -3 34 -6 81 -6 105 0 42 -1 42 -40 49 l-40 7 0 84 0 84
-45 0 c-38 0 -45 3 -45 20 0 13 -7 20 -20 20 -15 0 -20 7 -20 25 0 20 -5 25
-25 25 -23 0 -25 4 -25 45 l0 45 -45 0 c-38 0 -45 3 -45 19 0 16 -8 20 -42 23
-36 2 -44 7 -46 26 -3 18 -10 22 -43 22 -32 0 -39 3 -39 20 0 19 -7 20 -90 20
-83 0 -90 1 -90 20 0 19 -7 20 -110 20 -103 0 -110 -1 -110 -20 0 -13 -7 -20
-20 -20 -13 0 -20 7 -20 20 0 22 5 21 -175 24 l-90 1 -3 -42 c-3 -43 -3 -43
-43 -43 l-39 0 0 45 c0 32 4 45 14 45 23 0 33 71 20 139 -5 22 -12 31 -26 31
-17 0 -19 5 -12 45 6 44 5 45 -20 45 -25 0 -26 2 -26 65 0 57 -2 65 -19 65
-20 0 -31 34 -31 96 0 27 -4 34 -20 34 -15 0 -20 7 -20 25 0 18 -5 25 -20 25
-17 0 -20 7 -20 39 0 33 -4 40 -22 43 -21 3 -23 9 -26 71 -3 59 -5 67 -22 67
-13 0 -20 7 -20 20 0 13 -7 20 -20 20 -13 0 -20 7 -20 19 0 15 -10 20 -45 25
-44 7 -45 8 -45 46 0 32 -4 39 -22 42 -15 2 -24 11 -26 26 -3 19 -9 22 -48 22
-37 0 -44 3 -44 20 0 16 -7 20 -37 20 -55 0 -81 9 -86 31 -4 15 -14 19 -46 19
-34 0 -41 3 -41 20 0 19 -7 20 -90 20 -89 0 -90 0 -90 -25 0 -18 -5 -25 -20
-25 -15 0 -20 7 -20 25 0 20 -5 25 -25 25 -18 0 -25 -5 -25 -19z m310 -91 c0
-13 -7 -20 -20 -20 -13 0 -20 7 -20 20 0 13 7 20 20 20 13 0 20 -7 20 -20z
m-2730 -1500 c0 -13 -7 -20 -20 -20 -13 0 -20 7 -20 20 0 13 7 20 20 20 13 0
20 -7 20 -20z m220 -1320 c0 -13 -7 -20 -20 -20 -13 0 -20 7 -20 20 0 13 7 20
20 20 13 0 20 -7 20 -20z m-4270 -615 c0 -18 -5 -25 -20 -25 -15 0 -20 7 -20
25 0 18 5 25 20 25 15 0 20 -7 20 -25z"/>
<path d="M2700 2800 c0 -16 -8 -19 -62 -22 -57 -3 -63 -5 -66 -25 -3 -19 -10
-23 -41 -23 -35 0 -39 -3 -45 -31 -3 -17 -6 -47 -6 -65 0 -27 -4 -34 -20 -34
-19 0 -20 -7 -20 -110 l0 -110 25 0 c18 0 25 -5 25 -20 0 -13 7 -20 20 -20 15
0 20 -7 20 -25 0 -18 5 -25 20 -25 13 0 20 -7 20 -19 0 -13 8 -21 23 -23 14
-2 23 -11 25 -25 3 -23 6 -23 133 -23 l129 0 0 45 c0 41 2 45 25 45 18 0 25 5
25 20 0 17 7 20 40 20 36 0 40 3 40 25 0 20 5 25 25 25 24 0 25 2 25 65 0 58
2 65 20 65 15 0 20 7 20 25 0 18 -5 25 -19 25 -16 0 -20 8 -23 43 l-3 42 -42
-3 -43 -3 0 70 c0 69 -1 71 -25 71 -18 0 -25 5 -25 20 0 19 -7 20 -110 20
-102 0 -110 -1 -110 -20z"/>
<path d="M8870 1480 c0 -19 -8 -20 -352 -22 l-353 -3 -3 -22 c-5 -33 -42 -31
-42 2 0 18 -5 25 -20 25 -15 0 -20 -7 -20 -25 0 -20 -5 -25 -25 -25 -18 0 -25
5 -25 20 0 17 -7 20 -45 20 -38 0 -45 -3 -45 -20 0 -18 -7 -20 -59 -20 -58 0
-59 -1 -65 -31 -3 -17 -6 -58 -6 -90 0 -52 -2 -59 -20 -59 -13 0 -20 -7 -20
-20 0 -19 7 -20 90 -20 83 0 90 -1 90 -20 0 -17 7 -20 41 -20 32 0 42 -4 46
-20 4 -16 14 -20 44 -20 28 0 39 4 39 15 0 9 9 15 25 15 16 0 25 -6 25 -15 0
-8 9 -15 20 -15 12 0 20 7 20 18 0 16 14 17 158 15 349 -3 319 -1 325 -23 3
-11 13 -20 22 -20 9 0 19 9 22 20 6 22 43 28 43 6 0 -18 44 -26 141 -26 72 0
79 2 79 20 0 15 7 20 25 20 16 0 25 -6 25 -15 0 -8 9 -15 20 -15 11 0 20 7 20
15 0 11 12 15 45 15 l45 0 0 45 c0 38 3 45 20 45 13 0 20 7 20 19 0 13 8 21
23 23 19 3 22 10 25 51 3 45 2 47 -22 47 -25 0 -26 2 -26 65 l0 65 -110 0
c-103 0 -110 -1 -110 -20 0 -13 -7 -20 -20 -20 -13 0 -20 7 -20 20 0 17 -7 20
-45 20 -38 0 -45 -3 -45 -20z"/>
</g>
</svg>
